<svg xmlns="http://www.w3.org/2000/svg" fill="none" viewBox="0 0 128 128"><defs/><path fill="url(#paint0_radial)" d="M78.8 117c-5.45 0-10.73-2.01-15.71-6-3.95-3.17-44.19-42.4-44.6-42.79-1.62-1.62-2.64-3.3-2.92-4.84-.29-1.6.2-3 1.5-4.3a5.98 5.98 0 014.28-1.85c1.94 0 3.93.92 5.59 2.59l16.63 15.98a1.5 1.5 0 002.1-.02 1.5 1.5 0 00.01-2.1L19.13 46.25c-2.66-2.66-3.91-6.73-.75-9.89a5.98 5.98 0 014.28-1.85c1.94 0 3.93.92 5.59 2.59l27.16 26.48a1.5 1.5 0 002.11-.01 1.5 1.5 0 00.01-2.11L24.91 28.02a8.44 8.44 0 01-2.58-5.08 5.94 5.94 0 011.83-4.8 5.98 5.98 0 014.28-1.85c1.94 0 3.93.92 5.59 2.58L67.3 51.31a1.5 1.5 0 002.11-.01 1.5 1.5 0 00.01-2.11L45.26 24.36a8.36 8.36 0 01-2.58-5.08 5.94 5.94 0 011.83-4.8 5.98 5.98 0 014.28-1.85c1.94 0 3.93.92 5.59 2.59 8.86 8.7 31.99 31.45 32.77 32.29.62.75 1.33.92 1.8.92 1.74 0 2.66-2.03 2.81-4.04.17-2.34-.45-5.13-1.11-8.08-.82-3.68-1.67-7.49-.73-9.72 1.85-4.38 6.13-7.92 8.43-7.92.23 0 .43.04.6.12 4.14 1.94 3.99 4.43 3.19 10.38l-.15 1.15c-.77 5.92 2.32 13.35 5.04 19.91 1.11 2.67 2.16 5.2 2.89 7.46a41.91 41.91 0 001.89 4.52c4.15 9.08 10.43 22.79-9.91 43.13C94.13 113.08 86.36 117 78.8 117z"/><path fill="#EDA600" d="M48.79 14.12c1.52 0 3.17.78 4.55 2.16C65.9 28.63 84.85 47.26 86.03 48.5a3.84 3.84 0 002.92 1.42c2.34 0 4.07-2.18 4.3-5.44.18-2.56-.46-5.45-1.14-8.51-.73-3.29-1.57-7.02-.81-8.81 1.7-4.02 5.61-6.97 7.07-7 2.99 1.42 3.09 2.76 2.28 8.8l-.15 1.15c-.82 6.32 2.35 13.95 5.14 20.67 1.1 2.64 2.13 5.14 2.85 7.34.47 1.45 1.19 3.02 1.95 4.68 2 4.38 4.5 9.83 4.1 16.51-.48 8.04-4.96 16.2-13.71 24.94-7.47 7.47-14.88 11.26-22.03 11.26-5.1 0-10.07-1.91-14.77-5.68-3.23-2.59-33.21-31.7-44.46-42.67-2.82-2.82-3.3-5.19-1.44-7.04a4.44 4.44 0 013.22-1.41c1.52 0 3.17.78 4.53 2.15l.04.04 16.61 15.96a2.99 2.99 0 004.21-.04 3 3 0 00.03-4.2L20.18 45.17a6.86 6.86 0 01-2.13-4.14 4.39 4.39 0 011.39-3.61 4.44 4.44 0 013.22-1.41c1.52 0 3.17.78 4.56 2.17l27.15 26.46a2.98 2.98 0 004.21-.03 3.01 3.01 0 00.03-4.22L25.96 26.95c-3.13-3.13-2.35-6.13-.73-7.75a4.44 4.44 0 013.22-1.41c1.52 0 3.17.78 4.56 2.17l33.26 32.43a2.98 2.98 0 004.21-.03 3 3 0 00.03-4.21l-24.2-24.86a6.86 6.86 0 01-2.13-4.14 4.39 4.39 0 011.39-3.61 4.46 4.46 0 013.22-1.42zm0-3c-1.9 0-3.77.72-5.34 2.29-3.5 3.5-2.78 8.48.73 11.99l24.17 24.83L35.1 17.81a9.57 9.57 0 00-6.65-3.02c-1.9 0-3.77.72-5.34 2.29-3.5 3.5-2.78 8.48.73 11.99L56.46 62.5 29.31 36.04a9.57 9.57 0 00-6.65-3.02c-1.9 0-3.77.72-5.34 2.29-3.5 3.5-2.78 8.48.73 11.99l26.56 27.39L28 58.73a9.57 9.57 0 00-6.65-3.02c-1.9 0-3.77.72-5.34 2.29-3.5 3.5-2.07 7.77 1.44 11.29 0 0 40.65 39.64 44.71 42.89 3.49 2.8 9.22 6.34 16.64 6.34 6.78 0 14.97-2.95 24.15-12.14 24.82-24.82 11.16-40.65 8.39-49.18-2.57-7.94-8.87-18.9-7.86-26.71.8-6.21 1.77-10.43-3.89-13.08a2.8 2.8 0 00-1.23-.26c-3.2 0-7.9 4.29-9.81 8.83-1.93 4.58 2.09 13.17 1.72 18.28-.09 1.26-.6 2.65-1.31 2.65-.21 0-.44-.12-.68-.41-.44-.53-32.83-32.35-32.83-32.35-1.94-1.94-4.33-3.03-6.66-3.03z"/><path fill="#EDA600" d="M87.88 44.63c-4.77 10.65-2.06 22.47 4.68 34.78.93 1.7 2.52.87 1.71-.88-8.5-18.2-.88-34.64-.88-34.64l-5.51.74z"/><path fill="#424242" d="M15.64 79.89c1.71 4.93 5.22 8.39 10.34 9.63 2.81.68 4.02-3.66 1.2-4.34a9.57 9.57 0 01-7.19-6.48c-.95-2.72-5.3-1.55-4.35 1.19z"/><path fill="#424242" d="M5.97 80.88c3.53 11.1 13.88 16.68 25.19 14.44 2.84-.56 1.64-4.9-1.2-4.34-8.83 1.75-16.9-2.64-19.66-11.3-.87-2.75-5.21-1.58-4.33 1.2zM68.57 17.37c3.52.62 6.36 2.41 7.78 5.79.47 1.13 1.48 1.91 2.77 1.57 1.06-.28 2.04-1.65 1.57-2.77-2.02-4.82-5.71-8.02-10.92-8.94-2.83-.49-4.05 3.85-1.2 4.35z"/><path fill="#424242" d="M67.21 7.39c9.07.98 14.77 8.33 14.75 17.24-.01 2.9 4.49 2.9 4.5 0 .03-11.57-7.75-20.49-19.25-21.74-2.87-.31-2.85 4.19 0 4.5z"/><defs><radialGradient id="paint0_radial" cx="0" cy="0" r="1" gradientTransform="rotate(-45 67.47 -33.37) scale(89.8361)" gradientUnits="userSpaceOnUse"><stop offset=".35" stop-color="#FFCA28"/><stop offset=".87" stop-color="#FFB300"/></radialGradient></defs></svg>