<svg width="128" height="128" viewBox="0 0 128 128" fill="none" xmlns="http://www.w3.org/2000/svg">
<path d="M78.8 117C73.35 117 68.07 114.99 63.09 111C59.14 107.83 18.9 68.6 18.49 68.21C16.87 66.59 15.85 64.91 15.57 63.37C15.28 61.77 15.77 60.37 17.07 59.07C18.28 57.86 19.76 57.22 21.35 57.22C23.29 57.22 25.28 58.14 26.94 59.81L43.57 75.79C43.86 76.07 44.24 76.21 44.61 76.21C45 76.21 45.38 76.06 45.67 75.77C46.25 75.19 46.25 74.25 45.68 73.67L19.13 46.25C16.47 43.59 15.22 39.52 18.38 36.36C19.59 35.15 21.07 34.51 22.66 34.51C24.6 34.51 26.59 35.43 28.25 37.1L55.41 63.58C55.7 63.86 56.08 64.01 56.46 64.01C56.84 64.01 57.23 63.86 57.52 63.57C58.1 62.99 58.11 62.05 57.53 61.46L24.91 28.02C23.4 26.51 22.49 24.7 22.33 22.94C22.18 21.15 22.81 19.49 24.16 18.14C25.37 16.93 26.85 16.29 28.44 16.29C30.38 16.29 32.37 17.21 34.03 18.87L67.3 51.31C67.59 51.59 67.97 51.74 68.35 51.74C68.73 51.74 69.12 51.59 69.41 51.3C69.99 50.72 70 49.78 69.42 49.19L45.26 24.36C43.74 22.84 42.83 21.04 42.68 19.28C42.53 17.49 43.16 15.83 44.51 14.48C45.72 13.27 47.2 12.63 48.79 12.63C50.73 12.63 52.72 13.55 54.38 15.22C63.24 23.92 86.37 46.67 87.15 47.51C87.77 48.26 88.48 48.43 88.95 48.43C90.69 48.43 91.61 46.4 91.76 44.39C91.93 42.05 91.31 39.26 90.65 36.31C89.83 32.63 88.98 28.82 89.92 26.59C91.77 22.21 96.05 18.67 98.35 18.67C98.58 18.67 98.78 18.71 98.95 18.79C103.09 20.73 102.94 23.22 102.14 29.17L101.99 30.32C101.22 36.24 104.31 43.67 107.03 50.23C108.14 52.9 109.19 55.43 109.92 57.69C110.36 59.06 111.03 60.52 111.81 62.21C115.96 71.29 122.24 85 101.9 105.34C94.13 113.08 86.36 117 78.8 117V117Z" fill="url(#paint0_radial)"/>
<path d="M48.79 14.12C50.31 14.12 51.96 14.9 53.34 16.28C65.9 28.63 84.85 47.26 86.03 48.5C87.1 49.73 88.31 49.92 88.95 49.92C91.29 49.92 93.02 47.74 93.25 44.48C93.43 41.92 92.79 39.03 92.11 35.97C91.38 32.68 90.54 28.95 91.3 27.16C93 23.14 96.91 20.19 98.37 20.16C101.36 21.58 101.46 22.92 100.65 28.96L100.5 30.11C99.68 36.43 102.85 44.06 105.64 50.78C106.74 53.42 107.77 55.92 108.49 58.12C108.96 59.57 109.68 61.14 110.44 62.8C112.44 67.18 114.94 72.63 114.54 79.31C114.06 87.35 109.58 95.51 100.83 104.25C93.36 111.72 85.95 115.51 78.8 115.51C73.7 115.51 68.73 113.6 64.03 109.83C60.8 107.24 30.82 78.13 19.57 67.16C16.75 64.34 16.27 61.97 18.13 60.12C19.07 59.18 20.15 58.71 21.35 58.71C22.87 58.71 24.52 59.49 25.88 60.86L25.92 60.9L42.53 76.86C43.11 77.42 43.86 77.7 44.61 77.7C45.38 77.7 46.15 77.4 46.74 76.82C47.89 75.66 47.91 73.79 46.77 72.62L20.18 45.17C18.93 43.92 18.17 42.45 18.05 41.03C17.93 39.67 18.4 38.46 19.44 37.42C20.38 36.48 21.46 36.01 22.66 36.01C24.18 36.01 25.83 36.79 27.22 38.18L54.37 64.64C54.95 65.21 55.71 65.49 56.46 65.49C57.23 65.49 58 65.2 58.58 64.61C59.74 63.45 59.75 61.57 58.61 60.39L25.96 26.95C22.83 23.82 23.61 20.82 25.23 19.2C26.17 18.26 27.25 17.79 28.45 17.79C29.97 17.79 31.62 18.57 33.01 19.96L66.27 52.39C66.85 52.96 67.61 53.24 68.36 53.24C69.13 53.24 69.9 52.95 70.48 52.36C71.64 51.2 71.65 49.32 70.51 48.15L46.31 23.29C45.06 22.04 44.3 20.57 44.18 19.15C44.06 17.79 44.53 16.58 45.57 15.54C46.51 14.6 47.59 14.12 48.79 14.12V14.12ZM48.79 11.12C46.89 11.12 45.02 11.84 43.45 13.41C39.95 16.91 40.67 21.89 44.18 25.4L68.35 50.23L35.1 17.81C33.16 15.87 30.78 14.79 28.45 14.79C26.55 14.79 24.68 15.51 23.11 17.08C19.61 20.58 20.33 25.56 23.84 29.07L56.46 62.5L29.31 36.04C27.37 34.1 24.99 33.02 22.66 33.02C20.76 33.02 18.89 33.74 17.32 35.31C13.82 38.81 14.54 43.79 18.05 47.3L44.61 74.69L28 58.73C26.06 56.79 23.68 55.71 21.35 55.71C19.45 55.71 17.58 56.43 16.01 58C12.51 61.5 13.94 65.77 17.45 69.29C17.45 69.29 58.1 108.93 62.16 112.18C65.65 114.98 71.38 118.52 78.8 118.52C85.58 118.52 93.77 115.57 102.95 106.38C127.77 81.56 114.11 65.73 111.34 57.2C108.77 49.26 102.47 38.3 103.48 30.49C104.28 24.28 105.25 20.06 99.59 17.41C99.22 17.23 98.8 17.15 98.36 17.15C95.16 17.15 90.46 21.44 88.55 25.98C86.62 30.56 90.64 39.15 90.27 44.26C90.18 45.52 89.67 46.91 88.96 46.91C88.75 46.91 88.52 46.79 88.28 46.5C87.84 45.97 55.45 14.15 55.45 14.15C53.51 12.21 51.12 11.12 48.79 11.12V11.12Z" fill="#EDA600"/>
<path d="M87.88 44.63C83.11 55.28 85.82 67.1 92.56 79.41C93.49 81.11 95.08 80.28 94.27 78.53C85.77 60.33 93.39 43.89 93.39 43.89L87.88 44.63Z" fill="#EDA600"/>
<path d="M15.64 79.8901C17.35 84.8201 20.86 88.2801 25.98 89.5201C28.79 90.2001 30 85.8601 27.18 85.1801C23.64 84.3301 21.19 82.1601 19.99 78.7001C19.04 75.9801 14.69 77.1501 15.64 79.8901V79.8901Z" fill="#424242"/>
<path d="M5.97 80.88C9.5 91.98 19.85 97.56 31.16 95.32C34 94.76 32.8 90.42 29.96 90.98C21.13 92.73 13.06 88.34 10.3 79.68C9.43 76.93 5.09 78.1 5.97 80.88V80.88Z" fill="#424242"/>
<path d="M68.57 17.3699C72.09 17.9899 74.93 19.7799 76.35 23.1599C76.82 24.2899 77.83 25.0699 79.12 24.7299C80.18 24.4499 81.16 23.0799 80.69 21.9599C78.67 17.1399 74.98 13.9399 69.77 13.0199C66.94 12.5299 65.72 16.8699 68.57 17.3699V17.3699Z" fill="#424242"/>
<path d="M67.21 7.39006C76.28 8.37006 81.98 15.7201 81.96 24.6301C81.95 27.5301 86.45 27.5301 86.46 24.6301C86.49 13.0601 78.71 4.14006 67.21 2.89006C64.34 2.58006 64.36 7.08006 67.21 7.39006V7.39006Z" fill="#424242"/>
<defs>
<radialGradient id="paint0_radial" cx="0" cy="0" r="1" gradientUnits="userSpaceOnUse" gradientTransform="translate(43.3553 37.934) rotate(-45) scale(89.8361)">
<stop offset="0.3533" stop-color="#FFCA28"/>
<stop offset="0.8723" stop-color="#FFB300"/>
</radialGradient>
</defs>
</svg>
